<?xml version="1.0" encoding="UTF-8"?>
<svg id="Layer_1" data-name="Layer 1" xmlns="http://www.w3.org/2000/svg" xmlns:xlink="http://www.w3.org/1999/xlink" viewBox="0 0 1254.81 425">
  <defs>
    <style>
      .cls-1 {
        fill: #fff;
      }

      .cls-2, .cls-3 {
        fill-rule: evenodd;
      }

      .cls-2, .cls-4 {
        fill: #324246;
      }

      .cls-3 {
        fill: url(#linear-gradient);
      }
    </style>
    <linearGradient id="linear-gradient" x1="0" y1="212.5" x2="425" y2="212.5" gradientUnits="userSpaceOnUse">
      <stop offset="0" stop-color="#34b89b"/>
      <stop offset="1" stop-color="#68d8a4"/>
    </linearGradient>
  </defs>
  <path class="cls-2" d="M514.61,151.33l4.35,1.26c-5.12,14.02-12.36,16.43-16.32,16.43-6.08,0-9.75-3-9.75-8.7,0-3.19,1.26-7.54,1.93-10.25l5.41-19.82h-8.79l1.35-5.22h8.79l3.19-11.7,9.37-.97-3.48,12.66h13.52l-1.45,5.22h-13.42l-6.08,22.04c-.77,2.9-1.26,5.12-1.26,6.38,0,2.42,1.06,3.38,3.19,3.38,3.57,0,6.57-4.83,9.46-10.73ZM559.97,162.22c-1.26-.01-1.73-.79-1.71-2.15.08-6.67,7.07-18.68,7.16-26.51.06-5.7-2.88-10.28-7.99-10.34-6.57-.07-14.37,7.28-20.61,20.26l-.58-.3,12.54-41.43-17.67-.2-1.91,6.94,8.79.1-16.51,59.27,9.56.11c7.95-28.33,18-37.5,22.83-37.45,1.54.02,2.5.9,2.47,3.41-.08,7.25-6.56,16.07-6.67,26.41-.06,5.7,3.28,8.74,7.72,8.79,4.44.05,9.5-3.47,13.5-15.51l-4.23-1.3c-2.29,6.06-4.46,9.91-6.68,9.88ZM605.85,153.94l3.96,2.32c-4.73,7.44-10.53,12.76-20.57,12.76-8.88,0-15.45-6.86-15.45-17.21,0-14.69,13.13-28.71,27.23-28.71,7.44,0,11.49,3.87,11.49,9.38,0,8.41-9.17,16.14-29.16,17.79-.1,1.16-.19,2.22-.19,3.19,0,7.54,3.96,10.15,8.88,10.15s10.04-3.87,13.81-9.67ZM584.32,145.92c14.19-1.84,19.89-6.77,19.89-13.24,0-2.51-1.54-4.74-4.73-4.74-7.24,0-12.84,9.47-15.16,17.98Z"/>
  <path class="cls-4" d="M705.13,104.99v-.92c24.46-4.05,31.82-16.94,31.82-27.8,0-14.92-9.01-29.28-46.72-29.28h-58.12v13.81h18.76v93.54h-18.76v13.81h58.67c39.91,0,51.32-16.2,51.32-34.07,0-15.28-11.77-26.88-36.97-29.09ZM674.6,60.8h13.98c19.31,0,23.91,6.08,23.91,17.49s-5.7,20.07-24.09,20.07h-13.79v-37.56ZM688.39,154.34h-13.79v-43.09h13.43c21.52,0,29.43,8.29,29.43,20.62,0,16.2-7.36,22.46-29.06,22.46ZM825.05,97.08c0,7.55-5.33,13.63-12.51,13.63s-12.69-4.24-12.69-11.78c0-.74.18-1.66.37-2.39-6.81,0-12.69,7.73-15.82,18.41v39.59h16v13.63h-50.4v-13.63h12.88v-58h-12.88v-13.63h33.48v20.81c4.6-14.92,15.27-22.1,25.75-22.1,9.93,0,15.82,7.18,15.82,15.47ZM872.51,81.42c-25.75,0-43.96,18.41-43.96,44.56s17.11,44.01,43.96,44.01,43.96-18.6,43.96-44.75-17.29-43.82-43.96-43.82ZM873.24,158.95c-13.61,0-21.15-10.13-21.15-33.33s6.25-33.14,19.68-33.14,21.15,9.76,21.15,33.14-6.62,33.33-19.68,33.33ZM972.38,81.42c-25.75,0-43.96,18.41-43.96,44.56s17.11,44.01,43.96,44.01,43.96-18.6,43.96-44.75-17.29-43.82-43.96-43.82ZM973.12,158.95c-13.61,0-21.15-10.13-21.15-33.33s6.25-33.14,19.68-33.14,21.15,9.76,21.15,33.14-6.62,33.33-19.68,33.33ZM1109.23,154.53h9.75v13.63h-43.22v-13.44h10.3l-19.13-26.15-11.59,11.23v14.92h9.93v13.44h-44.33v-13.63h13.06V55.64h-13.06v-14.36h34.39v84.7l29.8-29.65h-13.61v-13.44h42.86v13.63h-12.87l-21.15,20.07,28.88,37.93ZM1199.72,142.56c0,13.63-11.4,27.44-31.27,27.44-11.59,0-20.42-4.97-25.93-11.6l-2.39,11.42h-12.14v-31.86h12.51c5.7,12.71,16.37,21.36,27.41,21.36,9.01,0,12.87-4.24,12.87-10.31,0-7-5.15-10.31-22.07-14.73-20.42-5.52-29.43-12.52-29.43-26.7s11.96-26.15,30.16-26.15c9.56,0,17.66,3.5,22.26,9.94l2.21-9.94h12.32v29.28h-12.32c-6.25-11.6-12.88-18.97-23.54-18.97-6.62,0-11.96,3.5-11.96,9.76,0,6.81,5.89,10.13,21.34,14.18,19.31,5.16,29.98,11.42,29.98,26.88Z"/>
  <path class="cls-2" d="M1163.9,243c-10.48,0-17.47,6.81-18.94,25.6h36.79c-1.1-16.57-6.25-25.6-17.84-25.6ZM1203.08,278.35h-58.31c.74,20.81,9.38,29.28,24.65,29.28,10.12,0,17.47-4.42,22.07-15.28h11.04c-4.23,18.05-16.92,28.36-37.89,28.36-26.85,0-42.67-18.41-42.67-43.46s18.21-45.11,43.04-45.11c26.85,0,38.99,21.54,38.07,46.22ZM1063.93,213.9l21.15-2.39v23.02h27.59v12.71h-27.59v47.14c0,8.1,2.39,12.34,9.56,12.34,5.33,0,8.83-4.79,12.32-15.28l9.38,3.31c-4.41,18.23-13.98,25.96-27.96,25.96-16.55,0-24.83-9.21-24.83-25.6v-47.88h-16v-12.71h16.37v-20.62ZM984.84,320.34c-15.63,0-23.73-11.05-23.73-28.17v-44.93h-12.88v-13.63h34.39v53.4c0,6.08,1.1,11.23,4.23,14.18,2.02,2.03,4.97,3.13,8.83,3.13,9.56,0,19.5-9.39,19.5-24.31v-32.78h-13.24v-13.63h34.76v71.63h13.06v13.63h-33.66v-21.91c-8.09,15.28-17.66,23.39-31.27,23.39ZM890.67,213.9l21.15-2.39v23.02h27.59v12.71h-27.59v47.14c0,8.1,2.39,12.34,9.56,12.34,5.33,0,8.83-4.79,12.32-15.28l9.38,3.31c-4.41,18.23-13.98,25.96-27.96,25.96-16.55,0-24.83-9.21-24.83-25.6v-47.88h-16v-12.71h16.37v-20.62ZM828.41,318.86v-13.63h14.71v-58h-14.71v-13.63h36.23v71.63h14.71v13.63h-50.95ZM851.93,220.25c7.83,0,13.04-5.57,13.04-13.23s-5.22-12.71-13.04-12.71-13.22,5.57-13.22,13.23,5.39,12.71,13.22,12.71ZM768.45,213.9v20.62h-16.37v12.71h16v47.88c0,16.39,8.28,25.6,24.83,25.6,13.98,0,23.54-7.73,27.96-25.96l-9.38-3.31c-3.49,10.5-6.99,15.28-12.32,15.28-7.17,0-9.56-4.24-9.56-12.34v-47.14h27.59v-12.71h-27.59v-23.02l-21.15,2.39ZM674.09,320.52h12.14l2.39-11.42c5.52,6.63,14.35,11.6,25.93,11.6,19.86,0,31.27-13.81,31.27-27.44,0-15.47-10.67-21.73-29.98-26.88-15.45-4.05-21.34-7.37-21.34-14.18,0-6.26,5.33-9.76,11.96-9.76,10.67,0,17.29,7.37,23.54,18.97h12.32v-29.28h-12.32l-2.21,9.94c-4.6-6.44-12.69-9.94-22.26-9.94-18.21,0-30.16,11.78-30.16,26.15s9.01,21.18,29.43,26.7c16.92,4.42,22.07,7.73,22.07,14.73,0,6.08-3.86,10.31-12.88,10.31-11.04,0-21.7-8.65-27.41-21.36h-12.51v31.86ZM563.09,318.86h45.61v-13.63h-11.22v-32.59c0-15.1,9.93-24.49,19.5-24.49,4.05,0,7.17,1.1,9.38,3.5,2.94,2.95,4.41,7.73,4.41,13.81v39.77h-11.4v13.63h45.8v-13.63h-13.06v-44.93c0-16.94-8.46-27.99-24.09-27.99-13.79,0-23.36,8.1-31.45,23.2v-21.91h-33.48v13.63h12.88v58h-12.88v13.63ZM490.07,318.86h61.62v-13.81h-18.94v-93.54h18.94v-13.81h-61.62v13.81h18.94v93.54h-18.94v13.81Z"/>
  <path class="cls-2" d="M1178.76,380.67c-3.2,0-6.12,3.09-8.39,8.29l2.43,1.1c1.38-2.98,2.87-5.41,4.3-5.41.5,0,.77.5.77,1.22,0,3.2-3.42,9.34-3.42,13.53,0,3.2,1.71,5.8,5.19,5.8,3.14,0,6.68-2.54,9.88-8.4l.33.17-.77,3.26c-2.04,8.56-5.35,12.43-9.71,12.43-.94,0-1.88-.17-2.65-.39.5-.55.88-1.49.94-2.1.17-1.77-.83-3.15-2.76-3.15-2.26,0-3.53,2.26-3.53,3.81,0,3.48,3.37,4.75,7.73,4.75,7.12,0,12.08-4.25,14.46-14.36l4.8-20.27h-5.19c-4.08,15.74-8.28,20.05-11.64,20.05-1.32,0-1.88-.55-1.88-2.1,0-3.42,3.2-8.12,3.2-13.53,0-2.98-1.55-4.7-4.08-4.7ZM1161.16,380.61c-7.5,0-14.73,8.01-14.73,16.3,0,5.8,3.86,9.94,9.55,9.94,5.02,0,7.95-3.26,10.32-7.68l-2.26-1.33c-2.15,3.65-4.63,5.69-7.23,5.69s-5.02-1.66-5.02-6.24,3.31-13.92,9.27-13.92c1.66,0,2.65.61,3.09,1.16-1.32,1.16-1.88,2.43-1.88,3.65,0,1.49,1.16,2.71,2.92,2.71,2.21,0,3.37-2.32,3.37-4.25,0-3.26-2.87-6.02-7.39-6.02ZM1140.41,386.47c0-3.76-1.88-5.86-4.58-5.86-3.37,0-6.12,3.15-8.39,8.34l2.43,1.1c1.66-3.42,3.09-5.97,4.86-5.97.61,0,.88.33.88,1.27,0,3.87-4.58,10.77-4.58,16.52,0,3.26,1.93,4.97,4.47,4.97,3.03,0,5.96-2.26,8.11-8.95l-2.43-.72c-1.55,3.92-2.81,5.69-3.97,5.69-.83,0-1.21-.44-1.21-1.38,0-3.48,4.41-10.83,4.41-15.03ZM1143.39,371.94c0-1.93-1.21-3.09-3.04-3.09-2.48,0-4.08,2.43-4.08,4.53,0,1.93,1.27,3.04,2.87,3.04,2.54,0,4.25-2.43,4.25-4.47ZM1112.71,401.88c0,3.09,1.6,4.97,4.69,4.97,2.92,0,5.63-2.04,7.84-8.95l-2.43-.72c-1.27,3.48-2.43,5.69-3.97,5.69-.61,0-1.21-.33-1.21-1.38,0-.77.22-1.99.66-3.59l7.95-29.5h-10.1l-1.05,3.98h5.02l-5.57,20.44c-1.05,3.92-1.82,7.07-1.82,9.06ZM1103.11,388.9c0-3.65-1.55-5.52-4.41-5.52-5.3,0-8.44,9.28-8.44,15.19,0,3.65,1.55,5.52,4.41,5.52,5.3,0,8.44-9.28,8.44-15.19ZM1098.7,380.61c6.07,0,9.77,4.42,9.77,10.61,0,8.4-6.4,15.63-13.8,15.63-6.07,0-9.77-4.42-9.77-10.61,0-8.4,6.4-15.63,13.8-15.63ZM1061.06,389.17c.83-3.04.66-4.47-.5-4.47-1.43,0-2.37,1.55-4.3,5.36l-2.43-1.1c2.65-5.91,5.19-8.23,8.39-8.23,2.21,0,3.75,1.6,3.75,4.42,0,.39-.06.94-.11,1.33l.39.17c2.04-3.81,5.24-6.02,8.17-6.02,4.25,0,6.95,3.81,6.95,8.78,0,9.56-6.79,17.01-12.97,17.01-2.87,0-5.08-1.49-6.01-3.31l-2.15,8.12h5.46l-.99,3.65h-14.51l.99-3.65h3.97l5.9-22.04ZM1072.76,384.37c-4.75,0-8.99,9.5-8.99,14.09,0,2.87,1.21,4.92,3.97,4.92,5.46,0,8.22-9.72,8.22-14.03,0-3.2-.94-4.97-3.2-4.97ZM1021.44,379.51c0,1.66.55,3.04,2.54,6.19,4.36-2.04,5.52-4.92,5.52-7.24,0-2.15-1.21-3.92-3.75-3.92-2.26,0-4.3,1.82-4.3,4.97ZM1018.02,403.2c3.2,0,5.3-1.55,7.28-4.03-1.32-3.59-2.81-6.46-5.02-9.78-5.68,2.26-7.17,5.58-7.17,8.73s1.77,5.08,4.91,5.08ZM1038.99,384.86c2.32,0,3.92,1.49,3.92,3.65,0,2.43-1.43,4.7-3.42,4.7-2.21,0-3.37-2.15-2.32-4.47-2.37,1.44-4.36,5.14-6.68,8.78,1.6,4.03,2.7,5.91,3.86,5.91,1.27,0,1.99-.77,4.08-4.59l2.26,1.22c-2.48,5.69-4.91,7.07-7.34,7.07-3.48,0-4.91-1.82-6.68-5.41-2.81,3.26-5.74,5.52-9.88,5.52-5.79,0-9.6-3.2-9.6-8.18s3.7-9.39,11.64-11.77c-1.77-2.71-2.43-4.42-2.43-6.63,0-5.8,4.8-9.11,9.66-9.11s8,2.87,8,6.96c0,2.98-1.77,6.57-8.83,9.23,1.6,2.43,2.87,4.7,3.86,7.13,3.03-4.81,5.52-10,9.88-10ZM966.71,380.67c-3.53,0-6.18,3.09-8.44,8.29l2.43,1.1c1.99-3.98,2.87-5.41,4.3-5.41.66,0,.88.5.88,1.22,0,3.48-4.69,10.66-4.69,15.47,0,3.76,2.37,5.69,5.52,5.69,3.97,0,6.73-3.42,8.88-9.23l.39.11c-.17,1.05-.17,1.71-.17,2.32-.06,4.47,2.04,6.79,5.63,6.79,8.94,0,14.18-14.09,14.18-21.77,0-2.98-1.38-4.75-3.75-4.75-2.04,0-3.64,2.04-3.64,4.2,0,1.99,1.21,3.15,2.92,3.15.28,0,.83-.11,1.16-.22-.66,7.02-4.58,15.25-9.33,15.25-1.55,0-2.65-.77-2.65-3.48,0-1.22.22-2.82.72-4.92l3.2-13.53h-4.91c-3.81,16.46-8.17,21.93-10.93,21.93-1.27,0-2.04-.77-2.04-2.26,0-3.98,4.47-9.56,4.47-15.19,0-2.98-1.32-4.75-4.14-4.75ZM938.07,402.93c4.75,0,8.5-10.16,8.5-14.64,0-2.93-1.16-4.59-3.26-4.59-5.41,0-8.83,9.45-8.83,13.76,0,3.42,1.16,5.47,3.59,5.47ZM954.13,380.94l-4.58,16.96c-.44,1.6-.66,2.71-.66,3.54,0,.88.39,1.44,1.32,1.44,1.38,0,2.59-2.21,3.86-5.69l2.43.72c-2.21,6.91-5.02,8.95-7.89,8.95-2.32,0-4.08-1.55-4.08-4.53,0-.39,0-.61.06-1.16l-.39-.17c-2.04,3.81-5.24,5.86-8.17,5.86-4.25,0-6.95-3.7-6.95-8.56,0-5.58,2.21-10.22,5.13-13.15,2.7-2.71,5.96-4.53,8.99-4.53s4.47,1.99,4.8,4.31l1.05-3.98h5.08ZM913.73,401.88c0,3.09,1.6,4.97,4.69,4.97,2.92,0,5.63-2.04,7.84-8.95l-2.43-.72c-1.27,3.48-2.43,5.69-3.97,5.69-.61,0-1.21-.33-1.21-1.38,0-.77.22-1.99.66-3.59l7.95-29.5h-10.1l-1.05,3.98h5.02l-5.57,20.44c-1.05,3.92-1.82,7.07-1.82,9.06ZM898.51,398.23c0,5.63-4.58,8.62-9.71,8.62-4.25,0-9.82-1.88-9.82-6.24,0-1.93,1.21-3.81,3.31-3.81,1.77,0,2.76,1.38,2.76,2.76s-.72,2.54-1.32,2.98c1.05,1.05,3.15,1.66,5.08,1.66,2.81,0,4.8-1.33,4.8-4.2,0-2.1-2.15-3.15-5.19-4.47-2.92-1.33-6.01-2.82-6.01-6.46,0-5.8,5.41-8.45,9.66-8.45,5.19,0,8.77,2.32,8.77,5.52,0,2.04-1.16,3.87-3.2,3.87-1.55,0-2.7-1.1-2.7-2.65,0-1.05.61-2.32,1.43-2.93-.55-.61-2.43-1.22-4.25-1.22-2.59,0-4.8,1.27-4.8,3.92,0,2.15,2.1,3.2,5.24,4.59,2.92,1.33,5.96,2.76,5.96,6.52ZM878.2,384.7h-7.67l-3.48,12.6c-.44,1.66-.72,2.93-.72,3.65,0,1.38.61,1.93,1.82,1.93,2.04,0,3.75-2.76,5.41-6.13l2.48.72c-2.92,8.01-7.06,9.39-9.33,9.39-3.48,0-5.57-1.71-5.57-4.97,0-1.82.72-4.31,1.1-5.86l3.09-11.32h-5.02l.77-2.98h5.02l1.82-6.68,5.35-.55-1.99,7.24h7.73l-.83,2.98ZM849.29,406.85c2.54,0,5.41-2.04,7.61-8.95l-2.43-.72c-1.27,3.48-2.48,5.69-3.75,5.69-.72,0-.99-.44-.99-1.22,0-3.81,3.92-10.72,3.92-15.19,0-3.26-1.71-5.86-4.63-5.86-3.75,0-8.17,4.25-11.64,11.71l-.33-.17,6.9-23.75h-10.1l-1.05,3.98h5.02l-9.05,33.97h5.46c4.36-16.24,10.04-21.54,12.8-21.54.88,0,1.43.5,1.43,1.93,0,4.14-3.64,9.23-3.64,15.14,0,3.26,1.93,4.97,4.47,4.97ZM811.32,401.55c4.41,0,8.39-6.85,8.39-12.93,0-2.93-1.88-4.92-3.86-4.92-4.97,0-8.22,7.68-8.22,13.15,0,3.09,1.21,4.7,3.7,4.7ZM804.76,412.04c.72.33,1.99.61,3.53.61,2.15,0,3.7-.66,5.02-2.04,1.66-1.71,2.81-4.64,3.81-9l-.39-.17c-1.77,2.32-4.64,3.76-7.34,3.76-4.52,0-7.17-3.65-7.17-7.9,0-4.97,1.88-9.56,5.19-12.87,2.48-2.49,5.13-3.81,8.17-3.81,2.81,0,4.86,1.77,5.46,4.2l.94-3.87h5.08l-4.8,20.27c-2.37,10.11-6.68,14.36-14.13,14.36-4.14,0-8.5-1.1-8.5-5.03,0-1.77,1.21-4.03,3.48-4.03,1.93,0,2.81,1.33,2.81,2.82,0,.99-.61,2.15-1.16,2.71ZM796.2,386.47c0-3.76-1.88-5.86-4.58-5.86-3.37,0-6.12,3.15-8.39,8.34l2.43,1.1c1.66-3.42,3.09-5.97,4.86-5.97.61,0,.88.33.88,1.27,0,3.87-4.58,10.77-4.58,16.52,0,3.26,1.93,4.97,4.47,4.97,3.03,0,5.96-2.26,8.11-8.95l-2.43-.72c-1.55,3.92-2.81,5.69-3.97,5.69-.83,0-1.21-.44-1.21-1.38,0-3.48,4.41-10.83,4.41-15.03ZM799.18,371.94c0-1.93-1.21-3.09-3.03-3.09-2.48,0-4.08,2.43-4.08,4.53,0,1.93,1.27,3.04,2.87,3.04,2.54,0,4.25-2.43,4.25-4.47ZM760.78,406.35h5.46c3.7-13.64,7.95-19.78,9.82-20.61,0,2.04,1.16,3.15,2.87,3.15,1.93,0,3.53-2.1,3.53-4.59,0-2.32-1.55-3.7-3.59-3.7-3.59,0-6.29,4.2-9.49,11.49l-.5-.17c.88-2.38,1.27-4.47,1.27-6.13,0-3.42-1.49-5.08-3.81-5.08-3.37,0-5.96,3.04-8.22,8.23l2.43,1.1c1.66-3.42,3.15-5.97,4.58-5.97,1.21,0,1.27,1.05.44,4.2l-4.8,18.06ZM734.46,401.88c0,3.09,1.6,4.97,4.69,4.97,2.92,0,5.63-2.04,7.84-8.95l-2.43-.72c-1.27,3.48-2.43,5.69-3.97,5.69-.61,0-1.21-.33-1.21-1.38,0-.77.22-1.99.66-3.59l7.95-29.5h-10.1l-1.05,3.98h5.02l-5.57,20.44c-1.05,3.92-1.82,7.07-1.82,9.06ZM712.88,402.93c4.75,0,8.5-10.16,8.5-14.64,0-2.93-1.16-4.59-3.26-4.59-5.41,0-8.83,9.45-8.83,13.76,0,3.42,1.16,5.47,3.59,5.47ZM728.94,380.94l-4.58,16.96c-.44,1.6-.66,2.71-.66,3.54,0,.88.39,1.44,1.32,1.44,1.38,0,2.59-2.21,3.86-5.69l2.43.72c-2.21,6.91-5.02,8.95-7.89,8.95-2.32,0-4.08-1.55-4.08-4.53,0-.39,0-.61.06-1.16l-.39-.17c-2.04,3.81-5.24,5.86-8.17,5.86-4.25,0-6.95-3.7-6.95-8.56,0-5.58,2.21-10.22,5.13-13.15,2.7-2.71,5.96-4.53,8.99-4.53s4.47,1.99,4.8,4.31l1.05-3.98h5.08ZM693.63,406.85c2.54,0,5.41-2.04,7.61-8.95l-2.43-.72c-1.27,3.48-2.48,5.69-3.75,5.69-.72,0-.99-.44-.99-1.22,0-3.81,3.92-10.72,3.92-15.19,0-3.26-1.71-5.86-4.64-5.86-3.75,0-7.73,4.03-11.2,11.49l-.39-.17c.88-2.38,1.32-4.25,1.32-5.91,0-3.26-1.49-5.41-4.41-5.41-3.75,0-7.73,4.03-11.2,11.49l-.39-.17c.88-2.38,1.27-4.47,1.27-6.13,0-3.42-1.49-5.08-3.81-5.08-3.37,0-5.96,3.04-8.22,8.23l2.43,1.1c1.66-3.42,3.15-5.97,4.58-5.97,1.21,0,1.27,1.05.44,4.2l-4.8,18.06h5.46c4.36-16.24,9.49-21.54,12.25-21.54,1.27,0,1.66,1.27,1.66,2.71,0,1.22-.28,2.65-.61,3.87l-3.97,14.97h5.35c4.36-16.24,9.49-21.54,12.25-21.54.88,0,1.43.5,1.43,1.93,0,4.14-3.64,9.23-3.64,15.14,0,3.26,1.93,4.97,4.47,4.97ZM651.58,386.47c0-3.76-1.88-5.86-4.58-5.86-3.37,0-6.12,3.15-8.39,8.34l2.43,1.1c1.66-3.42,3.09-5.97,4.86-5.97.61,0,.88.33.88,1.27,0,3.87-4.58,10.77-4.58,16.52,0,3.26,1.93,4.97,4.47,4.97,3.03,0,5.96-2.26,8.11-8.95l-2.43-.72c-1.54,3.92-2.81,5.69-3.97,5.69-.83,0-1.21-.44-1.21-1.38,0-3.48,4.41-10.83,4.41-15.03ZM654.56,371.94c0-1.93-1.21-3.09-3.03-3.09-2.48,0-4.08,2.43-4.08,4.53,0,1.93,1.27,3.04,2.87,3.04,2.54,0,4.25-2.43,4.25-4.47ZM629.4,401.66c0-3.81,3.92-10.72,3.92-15.19,0-3.26-1.71-5.86-4.64-5.86-3.75,0-7.73,4.03-11.2,11.49l-.39-.17c.88-2.38,1.27-4.47,1.27-6.13,0-3.42-1.49-5.08-3.81-5.08-3.37,0-5.96,3.04-8.22,8.23l2.43,1.1c1.66-3.42,3.15-5.97,4.58-5.97,1.21,0,1.27,1.05.44,4.2l-4.8,18.06h5.46c4.36-16.24,9.49-21.54,12.25-21.54.88,0,1.43.5,1.43,1.93,0,4.14-3.64,9.23-3.64,15.14,0,3.26,1.93,4.97,4.47,4.97s5.41-2.04,7.61-8.95l-2.43-.72c-1.27,3.48-2.48,5.69-3.75,5.69-.72,0-.99-.44-.99-1.22ZM586.74,402.93c4.75,0,8.5-10.16,8.5-14.64,0-2.93-1.16-4.59-3.26-4.59-5.41,0-8.83,9.45-8.83,13.76,0,3.42,1.16,5.47,3.59,5.47ZM602.8,380.94l-4.58,16.96c-.44,1.6-.66,2.71-.66,3.54,0,.88.39,1.44,1.32,1.44,1.38,0,2.59-2.21,3.86-5.69l2.43.72c-2.21,6.91-5.02,8.95-7.89,8.95-2.32,0-4.08-1.55-4.08-4.53,0-.39,0-.61.06-1.16l-.39-.17c-2.04,3.81-5.24,5.86-8.17,5.86-4.25,0-6.95-3.7-6.95-8.56,0-5.58,2.21-10.22,5.13-13.15,2.7-2.71,5.96-4.53,8.99-4.53s4.47,1.99,4.8,4.31l1.05-3.98h5.08ZM545.08,406.35h5.46c3.7-13.64,7.95-19.78,9.82-20.61,0,2.04,1.16,3.15,2.87,3.15,1.93,0,3.53-2.1,3.53-4.59,0-2.32-1.55-3.7-3.59-3.7-3.59,0-6.29,4.2-9.49,11.49l-.5-.17c.88-2.38,1.27-4.47,1.27-6.13,0-3.42-1.49-5.08-3.81-5.08-3.37,0-5.96,3.04-8.22,8.23l2.43,1.1c1.66-3.42,3.15-5.97,4.58-5.97,1.21,0,1.27,1.05.44,4.2l-4.8,18.06ZM534.82,388.9c0-3.65-1.54-5.52-4.41-5.52-5.3,0-8.44,9.28-8.44,15.19,0,3.65,1.55,5.52,4.41,5.52,5.3,0,8.44-9.28,8.44-15.19ZM530.41,380.61c6.07,0,9.77,4.42,9.77,10.61,0,8.4-6.4,15.63-13.79,15.63-6.07,0-9.77-4.42-9.77-10.61,0-8.4,6.4-15.63,13.79-15.63ZM494.43,415.58c-3.03,0-4.36-1.6-4.36-3.42s1.43-3.65,3.42-3.65c1.88,0,2.59,1.38,2.59,2.43,0,.99-.28,1.82-.72,2.21,1.82,0,2.65-.83,4.41-9.23l4.08-19.22h-5.3l.77-2.98h5.13c1.88-8.95,6.84-13.59,12.58-13.59,4.3,0,5.96,2.43,5.96,4.59,0,2.54-1.66,4.7-3.75,4.7-1.6,0-2.7-.99-2.7-2.76,0-1.05.5-2.6,1.55-3.48-.33-.22-.88-.39-1.49-.39-3.97,0-5.41,3.2-6.68,9.34l-.33,1.6h7.17l-.83,2.98h-6.95l-3.75,17.68c-2.1,10.11-6.84,13.2-10.82,13.2Z"/>
  <path class="cls-4" d="M1209,389.34h1.74v17.61h-1.74v-17.61ZM1229.06,404.26l-10.94-14.92h-1.84v17.61h1.74v-14.92l10.91,14.92h1.84v-17.61h-1.71v14.92ZM1246.68,404.93c-.92.38-1.87.57-2.85.57-1.36,0-2.61-.33-3.74-1-1.13-.66-2.03-1.56-2.7-2.68-.66-1.12-1-2.36-1-3.7s.33-2.58,1-3.72c.66-1.13,1.56-2.03,2.7-2.68,1.13-.66,2.38-.98,3.74-.98.99,0,1.95.19,2.87.58s1.74.92,2.44,1.61l1.03-1.21c-.84-.79-1.81-1.41-2.92-1.85-1.11-.45-2.26-.67-3.45-.67-1.66,0-3.2.4-4.6,1.2s-2.52,1.88-3.34,3.24c-.82,1.36-1.23,2.86-1.23,4.49s.41,3.13,1.22,4.51c.81,1.38,1.92,2.47,3.31,3.28,1.39.81,2.92,1.21,4.59,1.21,1.18,0,2.33-.24,3.45-.71,1.12-.47,2.12-1.11,3-1.92l-1.06-1.13c-.72.67-1.55,1.2-2.47,1.58ZM1254.49,405.19c-.22-.22-.49-.33-.81-.33s-.58.11-.79.33c-.21.22-.31.49-.31.81,0,.34.1.61.31.83s.47.33.79.33.59-.11.81-.34c.22-.23.33-.5.33-.82s-.11-.59-.33-.81Z"/>
  <circle class="cls-1" cx="212.5" cy="212.5" r="212.4"/>
  <path class="cls-3" d="M367.35,66.99s-.03.01-.04.02c-.25.28-.42.52-.46.69-4.47,16.58-16.53,29.46-20.81,36.96-1.12,1.96-15.2,31.76-15.2,31.76l-.6,1.38s-5.78-5.19-4.78-7.82c1-2.63-20.04,20.68-26.73,30.88-4.85,7.4-15.86,7-20.32,7.09-4.46.09-10.88,2.38-10.88,2.38,0,0,3.75-11.42,6.09-15.64,2.11-3.79,10.21-11.49,10.21-11.49,0,0-5.61,3.53-8.92,7.1-3.31,3.57-5.33,8.44-6.7,11.35-1.36,2.91-2.39,8.22-14.98,6.95-11.07-2.29-15.87.66-15.87.66,0,0-.77-6.03,2.94-10.8,3.62-4.65,5.57-13.68,10.71-18.48,9.29-8.69,13.5-10.95,13.5-10.95,0,0-7.9,3.45-14.21,9.44-1.44,1.37-3.87,4.17-6.39,9.66-2.22,4.84-3.75,10.36-9.43,9.15-3.59-.77-6.96.37-6.96.37,0,0,.31-3.16,2.02-6.51,2.82-5.5.98-7.13,3.38-16.55,2.22-8.73,6.01-11.45,9.77-15.22,4.08-4.09,11.61-8.79,11.61-8.79-.48.31-6.06,2.03-11.16,6.49-5.46,4.77-7.81,8.01-7.81,8.01,0,0-.46-12.65,5.28-20.22,5.74-7.57,25.3-15.01,28.6-16.15,7.86-2.72,32.53-14.75,40.8-22.69,7.87-7.56,16.31-17.43,24.3-27.58,0-.02,0-.03,0-.05C299.8,14.19,257.81,0,212.5,0,95.14,0,0,95.14,0,212.5c0,48.78,16.45,93.72,44.09,129.58-.01-.05-.03-.09-.06-.13,7.64-17.57,15.7-34.96,22.25-50.4,6.54-15.43,21.73-29.7,32.63-37.77,12.09-8.94,10.84-6.57,73.33-39.83,0,0,20.8-8.38,22.24-11.31,1.44-2.93,20.45-14.79,20.45-14.79,0,0,6.8,4.6,5.98,11.6-.82,7.01-13.62,22.3-20.19,26.74-6.57,4.44-28.54,17.27-28.54,17.27,0,0-5.25,1.51-.22,4.08,5.02,2.57,31.16.49,37.31-1.91,6.15-2.4,15.76-6.02,15.76-6.02,0,0-3.71-9.23,2.11-17.35,4.43-6.17,12.89-2.51,12.89-2.51l2.28,6.14s-2.37-11.1,3.25-15.8c6.71-5.61,11.59-1.27,11.59-1.27l4.53,13.8s22.98-12.31,26.18-14.41c7.45-4.89,20.39-4.15,20.3,6.15-.03,3.41-41.01,33.8-40.94,33.73,0,0,.39,6.46-1.06,16.19-.94,6.27-9.3,12.05-12.53,12.96-3.22.91.06,8.13-5.61,13.47-8.45,7.96-29.37,18.96-29.37,18.96l-18.43,10.1s-8.13,11.46-16.63,13.58c-8.51,2.13-46.01,2.51-59.74,8.51-5.82,2.54-11.71,27.83-16.47,55.25-.08-.05-.16-.06-.22-.06,31.05,17.75,67,27.9,105.32,27.9,117.36,0,212.5-95.14,212.5-212.5,0-56.31-21.91-107.49-57.65-145.51Z"/>
  <path class="cls-4" d="M1247.17,77.59c0,7.42-5.82,13.24-13.4,13.24s-13.48-5.82-13.48-13.24,5.98-13.08,13.48-13.08,13.4,5.82,13.4,13.08ZM1223.64,77.59c0,5.82,4.31,10.45,10.21,10.45s9.97-4.63,9.97-10.37-4.23-10.53-10.05-10.53-10.13,4.71-10.13,10.45ZM1231.69,84.45h-3.03v-13.08c1.2-.24,2.87-.4,5.02-.4,2.47,0,3.59.4,4.55.96.72.56,1.28,1.6,1.28,2.87,0,1.43-1.12,2.55-2.71,3.03v.16c1.28.48,1.99,1.44,2.39,3.19.4,1.99.64,2.79.96,3.27h-3.27c-.4-.48-.64-1.67-1.04-3.19-.24-1.44-1.04-2.07-2.71-2.07h-1.43v5.26ZM1231.77,77.04h1.43c1.67,0,3.03-.56,3.03-1.91,0-1.2-.88-1.99-2.79-1.99-.8,0-1.36.08-1.67.16v3.75Z"/>
</svg>